{"title":"The.Dorm.2014.WEBRip.XViD.AC3-Sorrow","uid":12150985,"size":735498834,"categoryP":"video","categoryS":"movies","magnet":"?xt=urn:btih:190636b81bf502ec5c63bbf0f30fce5f6b4b3e2e&amp;dn=The.Dorm.2014.WEBRip.XViD.AC3-Sorrow&amp;tr=udp%3A%2F%2Ftracker.openbittorrent.com%3A80&amp;tr=udp%3A%2F%2Fopen.demonii.com%3A1337&amp;tr=udp%3A%2F%2Ftracker.coppersurfer.tk%3A6969&amp;tr=udp%3A%2F%2Fexodus.desync.com%3A6969","seeders":4,"leechers":0,"uploader":null,"files":2,"time":1437631511,"description":"The Dorm 2014 WEBRip XViD-Sorrow\n\nGeneral\nComplete name                            : The.Dorm.2014.WEBRip.XViD-Sorrow.avi\nFormat                                   : AVI\nFormat/Info                              : Audio Video Interleave\nFile size                                : 701 MiB\nDuration                                 : 1h 19mn\nOverall bit rate                         : 1 231 Kbps\nWriting application                      : Lavf55.19.104\n\nVideo\nID                                       : 0\nFormat                                   : MPEG-4 Visual\nFormat profile                           : Simple@L3\nFormat settings, BVOP                    : No\nFormat settings, QPel                    : No\nFormat settings, GMC                     : No warppoints\nFormat settings, Matrix                  : Default (H.263)\nCodec ID                                 : XVID\nCodec ID/Hint                            : XviD\nDuration                                 : 1h 19mn\nBit rate                                 : 1 090 Kbps\nWidth                                    : 720 pixels\nHeight                                   : 400 pixels\nDisplay aspect ratio                     : 16:9\nFrame rate                               : 23.976 fps\nColor space                              : YUV\nChroma subsampling                       : 4:2:0\nBit depth                                : 8 bits\nScan type                                : Progressive\nCompression mode                         : Lossy\nBits/(Pixel*Frame)                       : 0.158\nStream size                              : 621 MiB (89%)\nWriting library                          : XviD 64\n\nAudio\nID                                       : 1\nFormat                                   : MPEG Audio\nFormat version                           : Version 1\nFormat profile                           : Layer 3\nMode                                     : Joint stereo\nCodec ID                                 : 55\nCodec ID/Hint                            : MP3\nDuration                                 : 1h 19mn\nBit rate mode                            : Constant\nBit rate                                 : 128 Kbps\nChannel count                            : 2 channels\nSampling rate                            : 48.0 KHz\nCompression mode                         : Lossy\nStream size                              : 72.8 MiB (10%)\nAlignment                                : Aligned on interleaves\nInterleave, duration                     : 24 ms (0.58 video frame)\nWriting library                          : LAME3.99.5\n\n\nHorror:Horror\n\nVivian, a shy self-conscious college freshman, transforms into a new person after she rooms with a popular coed.\n\n\nDirector: Rachel Talalay \n\nWriter: Sean Hood \n\nStars: Cassie Steele, Jake Croker, Malti Chaudhary\n &lt;a href=&quot;\nhttp://www.imdb.com/title/tt3587064/&quot; rel=&quot;nofollow&quot; target=&quot;_NEW&quot;&gt;\nhttp://www.imdb.com/title/tt3587064/&lt;/a&gt;","torrent":{"xt":"urn:btih:190636b81bf502ec5c63bbf0f30fce5f6b4b3e2e","amp;dn":"The.Dorm.2014.WEBRip.XViD.AC3-Sorrow","amp;tr":["udp%3A%2F%2Ftracker.openbittorrent.com%3A80","udp%3A%2F%2Fopen.demonii.com%3A1337","udp%3A%2F%2Ftracker.coppersurfer.tk%3A6969","udp%3A%2F%2Fexodus.desync.com%3A6969"],"infoHash":"190636b81bf502ec5c63bbf0f30fce5f6b4b3e2e","infoHashBuffer":{"type":"Buffer","data":[25,6,54,184,27,245,2,236,92,99,187,240,243,15,206,95,107,75,62,46]},"announce":[],"urlList":[]}}